<?xml version="1.0" encoding="utf-8"?>
<!-- Generator: Adobe Illustrator 24.2.0, SVG Export Plug-In . SVG Version: 6.00 Build 0)  -->
<svg version="1.1" id="Layer_1" xmlns="http://www.w3.org/2000/svg" xmlns:xlink="http://www.w3.org/1999/xlink" x="0px" y="0px"
	 viewBox="0 0 100 100" style="enable-background:new 0 0 100 100;" xml:space="preserve">
<style type="text/css">
	.st0{enable-background:new    ;}
	.st1{fill:#666666;}
</style>
<g class="st0">
	<path class="st1" d="M93.8,81.3h3.9c1.3,0,2.3,1,2.3,2.3v7.8c0,1.3-1,2.3-2.3,2.3h-7.8c-1.3,0-2.3-1-2.3-2.3v-3.9h-75v3.9
		c0,1.3-1,2.3-2.3,2.3H2.3c-1.3,0-2.3-1-2.3-2.3v-7.8c0-1.3,1.1-2.3,2.3-2.3h3.9V18.8H2.3c-1.3,0-2.3-1-2.3-2.3V8.6
		c0-1.3,1.1-2.3,2.3-2.3h7.8c1.3,0,2.3,1,2.3,2.3v3.9h75V8.6c0-1.3,1.1-2.3,2.3-2.3h7.8c1.3,0,2.3,1,2.3,2.3v7.8
		c0,1.3-1,2.3-2.3,2.3h-3.9V25V81.3z M21.1,56.3h32.8c1.3,0,2.3-1,2.3-2.3V27.3c0-1.3-1-2.3-2.3-2.3H21.1c-1.3,0-2.3,1-2.3,2.3v26.6
		C18.8,55.2,19.8,56.3,21.1,56.3z M81.3,46.1c0-1.3-1-2.3-2.3-2.3H62.5v14.1c0,2.6-2.1,4.7-4.7,4.7H43.8v10.2c0,1.3,1.1,2.3,2.3,2.3
		h32.8c1.3,0,2.3-1,2.3-2.3V46.1z"/>
</g>
</svg>
