<?xml version="1.0" encoding="utf-8"?>
<!-- Generator: Adobe Illustrator 24.2.0, SVG Export Plug-In . SVG Version: 6.00 Build 0)  -->
<svg version="1.1" id="Layer_1" xmlns="http://www.w3.org/2000/svg" xmlns:xlink="http://www.w3.org/1999/xlink" x="0px" y="0px"
	 viewBox="0 0 100 100" style="enable-background:new 0 0 100 100;" xml:space="preserve">
<style type="text/css">
	.st0{fill:#666666;}
</style>
<path class="st0" d="M78.6,33.3h-4.8v-9.5C73.8,10.7,63.1,0,50,0S26.2,10.7,26.2,23.8v9.5h-4.8c-5.2,0-9.5,4.3-9.5,9.5v47.6
	c0,5.2,4.3,9.5,9.5,9.5h57.1c5.2,0,9.5-4.3,9.5-9.5V42.9C88.1,37.6,83.8,33.3,78.6,33.3z M50,76.2c-5.2,0-9.5-4.3-9.5-9.5
	s4.3-9.5,9.5-9.5s9.5,4.3,9.5,9.5S55.2,76.2,50,76.2z M64.8,33.3H35.2v-9.5C35.2,15.7,41.9,9,50,9s14.8,6.6,14.8,14.8V33.3z"/>
</svg>
