<?xml version="1.0" encoding="utf-8"?>
<!-- Generator: Adobe Illustrator 24.2.0, SVG Export Plug-In . SVG Version: 6.00 Build 0)  -->
<svg version="1.1" id="Layer_1" xmlns="http://www.w3.org/2000/svg" xmlns:xlink="http://www.w3.org/1999/xlink" x="0px" y="0px"
	 viewBox="0 0 100 100" style="enable-background:new 0 0 100 100;" xml:space="preserve">
<style type="text/css">
	.st0{fill:#666666;}
</style>
<g>
	<path class="st0" d="M82.1,42c2.9,0,5.4,2.4,5.4,5.4v5.3c0,2.9-2.4,5.4-5.4,5.4H58l0,24.1c0,2.9-2.4,5.4-5.4,5.4l-5.3,0
		c-2.9,0-5.4-2.4-5.4-5.4V58H17.9c-2.9,0-5.4-2.4-5.4-5.4v-5.3c0-2.9,2.4-5.4,5.4-5.4H42V17.9c0-2.9,2.4-5.4,5.4-5.4l5.3,0
		c2.9,0,5.4,2.4,5.4,5.4L58,42H82.1z"/>
</g>
</svg>
