<?xml version="1.0" encoding="utf-8"?>
<!-- Generator: Adobe Illustrator 24.2.0, SVG Export Plug-In . SVG Version: 6.00 Build 0)  -->
<svg version="1.1" id="Layer_1" xmlns="http://www.w3.org/2000/svg" xmlns:xlink="http://www.w3.org/1999/xlink" x="0px" y="0px"
	 viewBox="0 0 100 100" style="enable-background:new 0 0 100 100;" xml:space="preserve">
<style type="text/css">
	.st0{fill:#666666;}
</style>
<path class="st0" d="M87.2,54.9c0.2-1.6,0.3-3.2,0.3-4.9c0-1.7-0.1-3.3-0.4-4.9l10.6-8.2c0.9-0.7,1.2-2.1,0.6-3.2l-10-17.3
	c-0.6-1.1-1.9-1.5-3.1-1.1l-12.4,5c-2.6-2-5.4-3.6-8.4-4.9L62.5,2.1C62.3,0.9,61.3,0,60,0H40c-1.2,0-2.2,0.9-2.4,2.1l-1.9,13.2
	c-3.1,1.3-5.9,3-8.4,4.9l-12.4-5c-1.1-0.4-2.4,0-3.1,1.1L1.8,33.7c-0.6,1.1-0.4,2.4,0.6,3.2L13,45.1c-0.3,1.6-0.5,3.3-0.5,4.9
	s0.1,3.3,0.4,4.9L2.3,63.1c-0.9,0.7-1.2,2.1-0.6,3.2l10,17.3c0.6,1.1,1.9,1.5,3.1,1.1l12.4-5c2.6,2,5.4,3.6,8.4,4.9l1.9,13.2
	c0.3,1.3,1.3,2.1,2.5,2.1h20c1.3,0,2.3-0.9,2.4-2.1l1.9-13.2c3.1-1.3,5.9-2.9,8.4-4.9l12.4,5c1.1,0.4,2.4,0,3.1-1.1l10-17.3
	c0.6-1.1,0.4-2.4-0.6-3.2L87.2,54.9z M50,68.8c-10.3,0-18.8-8.4-18.8-18.8S39.7,31.3,50,31.3S68.8,39.7,68.8,50S60.3,68.8,50,68.8z"
	/>
</svg>
