<?xml version="1.0" encoding="utf-8"?>
<!-- Generator: Adobe Illustrator 24.2.0, SVG Export Plug-In . SVG Version: 6.00 Build 0)  -->
<svg version="1.1" id="Layer_1" xmlns="http://www.w3.org/2000/svg" xmlns:xlink="http://www.w3.org/1999/xlink" x="0px" y="0px"
	 viewBox="0 0 100 50" style="enable-background:new 0 0 100 50;" xml:space="preserve">
<style type="text/css">
	.st0{fill:#FFFFFF;}
	.st1{fill:#DCDCDC;}
	.st2{fill:#F5F5F5;}
	.st3{enable-background:new    ;}
	.st4{fill:#666666;}
</style>
<g id="Group_95_smartlayout_autoLayout:_vertical_gap:_10_padding:_10_" transform="translate(-1588 -51)">
	<g id="Group_94" transform="translate(10 38)">
		<g id="Group_93" transform="translate(53 -20)">
			<g id="Rectangle_68" transform="translate(1525 33)">
				<g>
					<path class="st0" d="M25,0h50c13.8,0,25,11.2,25,25l0,0c0,13.8-11.2,25-25,25H25C11.2,50,0,38.8,0,25l0,0C0,11.2,11.2,0,25,0z"
						/>
				</g>
				<g>
					<path class="st1" d="M75,50H25C11.2,50,0,38.8,0,25S11.2,0,25,0h50c13.8,0,25,11.2,25,25S88.8,50,75,50z M25,2.6
						C12.7,2.6,2.6,12.7,2.6,25c0,12.3,10,22.4,22.4,22.4h50c12.3,0,22.4-10,22.4-22.4c0-12.3-10-22.4-22.4-22.4H25z"/>
				</g>
			</g>
			<g id="Ellipse_46" transform="translate(1544 33)">
				<g>
					<circle class="st2" cx="56" cy="25" r="25"/>
				</g>
				<g>
					<path class="st1" d="M56,50c-13.8,0-25-11.2-25-25S42.2,0,56,0s25,11.2,25,25S69.8,50,56,50z M56,2.6
						c-12.3,0-22.4,10-22.4,22.4c0,12.3,10,22.4,22.4,22.4s22.4-10,22.4-22.4C78.4,12.7,68.3,2.6,56,2.6z"/>
				</g>
			</g>
			<g class="st3">
				<path class="st4" d="M1613.9,59.9l-5.4,2.7l1.9,5.7c0.3,0.8-0.5,1.5-1.2,1.2l-5.7-1.9l-2.7,5.4c-0.4,0.7-1.4,0.7-1.8,0l-2.7-5.4
					l-5.7,1.9c-0.8,0.3-1.5-0.5-1.2-1.2l1.9-5.7l-5.4-2.7c-0.7-0.4-0.7-1.4,0-1.8l5.4-2.7l-1.9-5.7c-0.3-0.8,0.5-1.5,1.2-1.2
					l5.7,1.9l2.7-5.4c0.4-0.7,1.4-0.7,1.8,0l2.7,5.4l5.7-1.9c0.8-0.3,1.5,0.5,1.2,1.2l-1.9,5.7l5.4,2.7
					C1614.7,58.5,1614.7,59.5,1613.9,59.9z M1605.1,53.9c-2.8-2.8-7.4-2.8-10.2,0s-2.8,7.4,0,10.2c2.8,2.8,7.4,2.8,10.2,0
					C1607.9,61.3,1607.9,56.7,1605.1,53.9z M1605.4,59c0,3-2.4,5.4-5.4,5.4s-5.4-2.4-5.4-5.4c0-3,2.4-5.4,5.4-5.4
					S1605.4,56,1605.4,59z"/>
			</g>
		</g>
	</g>
</g>
</svg>
