<?xml version="1.0" encoding="utf-8"?>
<!-- Generator: Adobe Illustrator 24.2.0, SVG Export Plug-In . SVG Version: 6.00 Build 0)  -->
<svg version="1.1" id="Layer_1" xmlns="http://www.w3.org/2000/svg" xmlns:xlink="http://www.w3.org/1999/xlink" x="0px" y="0px"
	 viewBox="0 0 100 100" style="enable-background:new 0 0 100 100;" xml:space="preserve">
<style type="text/css">
	.st0{fill:#FFFFFF;}
	.st1{enable-background:new    ;}
	.st2{fill:#2D7FF9;}
</style>
<g id="Ellipse_1">
	<circle class="st0" cx="50" cy="50" r="40.1"/>
</g>
<g class="st1">
	<path class="st2" d="M14.7,14.7C24.4,4.9,36.2,0,50,0c13.8,0,25.5,4.9,35.3,14.7C95.1,24.5,100,36.2,100,50
		c0,13.8-4.9,25.6-14.7,35.3C75.5,95.1,63.8,100,50,100c-13.8,0-25.6-4.9-35.3-14.7C4.9,75.6,0,63.8,0,50C0,36.2,4.9,24.5,14.7,14.7
		z M50,86.2c12.7,0,22.7-5.4,30-16.2c-0.2-4.4-3.7-8.1-10.6-11c-6.9-3-13.4-4.5-19.5-4.5s-12.6,1.4-19.5,4.3
		C23.6,61.7,20.1,65.4,20,70C27.3,80.8,37.3,86.2,50,86.2z M60.6,19.5c-3-3-6.5-4.5-10.6-4.5c-4.1,0-7.6,1.5-10.6,4.5
		c-3,3-4.5,6.5-4.5,10.6c0,4.1,1.5,7.6,4.5,10.6c3,3,6.5,4.5,10.6,4.5c4.1,0,7.6-1.5,10.6-4.5c3-3,4.5-6.5,4.5-10.6
		C65,26,63.5,22.5,60.6,19.5z"/>
</g>
</svg>
