<?xml version="1.0" encoding="utf-8"?>
<!-- Generator: Adobe Illustrator 24.2.0, SVG Export Plug-In . SVG Version: 6.00 Build 0)  -->
<svg version="1.1" id="Layer_1" xmlns="http://www.w3.org/2000/svg" xmlns:xlink="http://www.w3.org/1999/xlink" x="0px" y="0px"
	 viewBox="0 0 100 100" style="enable-background:new 0 0 100 100;" xml:space="preserve">
<style type="text/css">
	.st0{enable-background:new    ;}
	.st1{fill:#FFFFFF;}
</style>
<g class="st0">
	<path class="st1" d="M67.6,23.3c-0.7-0.3-1.6-0.6-2.5-0.8c-0.9-0.2-1.8-0.3-2.6-0.3c-1.9,0-3.3,0.5-4.3,1.6c-1,1-1.8,2.7-2.3,4.9
		l-1,4.5h9.3l-2,9.3h-9.5l-9.7,45.1H30.5l9.7-45.1h-6.9l2-9.3h6.9l1.3-5.9c1.1-5,3.2-8.7,6.2-11.1c3-2.4,7.2-3.6,12.4-3.6
		c1.4,0,2.7,0.1,4.1,0.3c1.4,0.2,2.5,0.5,3.4,0.8L67.6,23.3z"/>
</g>
</svg>
