<?xml version="1.0" encoding="utf-8"?>
<!-- Generator: Adobe Illustrator 24.2.0, SVG Export Plug-In . SVG Version: 6.00 Build 0)  -->
<svg version="1.1" id="Layer_1" xmlns="http://www.w3.org/2000/svg" xmlns:xlink="http://www.w3.org/1999/xlink" x="0px" y="0px"
	 viewBox="0 0 100 100" style="enable-background:new 0 0 100 100;" xml:space="preserve">
<style type="text/css">
	.st0{fill:#FFFFFF;}
</style>
<g>
	<path class="st0" d="M85.5,71.3c2.6,2.6,2.6,6.9,0,9.5l-4.7,4.7c-2.6,2.6-6.9,2.6-9.5,0L50,64.2L28.7,85.5c-2.6,2.6-6.9,2.6-9.5,0
		l-4.7-4.7c-2.6-2.6-2.6-6.9,0-9.5L35.8,50L14.5,28.7c-2.6-2.6-2.6-6.9,0-9.5l4.7-4.7c2.6-2.6,6.9-2.6,9.5,0L50,35.8l21.3-21.3
		c2.6-2.6,6.9-2.6,9.5,0l4.7,4.7c2.6,2.6,2.6,6.9,0,9.5L64.2,50L85.5,71.3z"/>
</g>
</svg>
