<?xml version="1.0" encoding="utf-8"?>
<!-- Generator: Adobe Illustrator 24.2.0, SVG Export Plug-In . SVG Version: 6.00 Build 0)  -->
<svg version="1.1" id="Layer_1" xmlns="http://www.w3.org/2000/svg" xmlns:xlink="http://www.w3.org/1999/xlink" x="0px" y="0px"
	 viewBox="0 0 100 100" style="enable-background:new 0 0 100 100;" xml:space="preserve">
<style type="text/css">
	.st0{fill:#FFFFFF;}
</style>
<g>
	<path class="st0" d="M77.4,61.7c-9.7-4.2-18.8-6.3-27.4-6.3s-17.7,2-27.4,6.1S8,70.8,7.8,77.2C18.1,92.4,32.2,100,50,100
		s31.9-7.6,42.2-22.8C92,71.1,87.1,65.9,77.4,61.7z"/>
	<path class="st0" d="M50,42.2c5.7,0,10.7-2.1,14.9-6.3s6.3-9.1,6.3-14.9c0-5.7-2.1-10.7-6.3-14.9C60.7,2.1,55.7,0,50,0
		S39.3,2.1,35.1,6.3s-6.3,9.1-6.3,14.9c0,5.7,2.1,10.7,6.3,14.9C39.3,40.2,44.3,42.2,50,42.2z"/>
</g>
</svg>
